<?xml version="1.0" encoding="UTF-8"?>
<!--Generator: Apple Native CoreSVG 175.5-->
<!DOCTYPE svg
PUBLIC "-//W3C//DTD SVG 1.1//EN"
       "http://www.w3.org/Graphics/SVG/1.1/DTD/svg11.dtd">
<svg version="1.1" xmlns="http://www.w3.org/2000/svg" xmlns:xlink="http://www.w3.org/1999/xlink" width="88.8672" height="88.916">
 <g>
  <rect height="88.916" opacity="0" width="88.8672" x="0" y="0"/>
  <path d="M83.1543 5.76172C78.1738 0.78125 71.1426 0 62.793 0L25.9277 0C17.7246 0 10.6934 0.78125 5.71289 5.76172C0.732422 10.7422 0 17.7246 0 25.8789L0 62.793C0 71.1426 0.732422 78.0762 5.71289 83.0566C10.6934 88.0371 17.7246 88.8184 26.0254 88.8184L62.793 88.8184C71.1426 88.8184 78.1738 88.0371 83.1543 83.0566C88.1348 78.0762 88.8672 71.1426 88.8672 62.793L88.8672 26.0254C88.8672 17.6758 88.1348 10.6934 83.1543 5.76172ZM60.2539 56.9336C57.959 56.9336 56.4941 55.3711 56.4941 52.9785L56.4941 44.3359L57.2266 36.4746L49.9512 44.2383L31.543 62.6953C30.8105 63.4277 29.834 63.8672 28.6133 63.8672C26.416 63.8672 24.9512 62.4023 24.9512 60.1074C24.9512 59.1309 25.4395 58.1055 26.1719 57.373L44.6289 38.916L52.4902 31.5918L45.0195 32.373L35.9375 32.373C33.4961 32.373 31.9336 30.9082 31.9336 28.7109C31.9336 26.4648 33.4473 25 35.8398 25L59.7168 25C62.3047 25 63.916 26.1719 63.916 29.1504L63.916 52.8809C63.916 55.2246 62.4512 56.9336 60.2539 56.9336Z" fill="#ffffff" fill-opacity="0.85"/>
 </g>
</svg>
