<svg version="1.1" xmlns="http://www.w3.org/2000/svg" xmlns:xlink="http://www.w3.org/1999/xlink" width="90.0391" height="89.6973" fill="currentColor" viewBox="0 0 90 90">
 <g>
  <rect height="89.6973" opacity="0" width="90.0391" x="0" y="0"/>
  <path d="M84.3262 5.85938C79.3457 0.878906 72.3145 0.0976562 63.9648 0.0976562L25.9277 0.0976562C17.7246 0.0976562 10.6934 0.878906 5.71289 5.85938C0.732422 10.8398 0 17.8223 0 25.9766L0 63.6719C0 72.0215 0.732422 78.9551 5.71289 83.9355C10.6934 88.916 17.7246 89.6973 26.0254 89.6973L63.9648 89.6973C72.3145 89.6973 79.3457 88.916 84.3262 83.9355C89.3066 78.9551 90.0391 72.0215 90.0391 63.6719L90.0391 26.123C90.0391 17.7734 89.3066 10.791 84.3262 5.85938ZM82.1777 24.7559L82.1777 64.9902C82.1777 70.0684 81.543 75.2441 78.5645 78.2227C75.6348 81.1523 70.3613 81.8359 65.332 81.8359L24.707 81.8359C19.6777 81.8359 14.4043 81.1523 11.4258 78.2227C8.49609 75.2441 7.86133 70.0684 7.86133 64.9902L7.86133 24.9023C7.86133 19.7754 8.49609 14.502 11.4258 11.5723C14.4043 8.59375 19.7266 7.95898 24.8535 7.95898L65.332 7.95898C70.3613 7.95898 75.6348 8.64258 78.5645 11.5723C81.543 14.5508 82.1777 19.7266 82.1777 24.7559ZM60.3516 56.9336C62.5 56.9336 63.916 55.2734 63.916 53.0273L63.916 29.9805C63.916 27.0996 62.3535 25.9766 59.8633 25.9766L36.6699 25.9766C34.375 25.9766 32.9102 27.3926 32.9102 29.541C32.9102 31.6895 34.4238 33.1055 36.7676 33.1055L45.6543 33.1055L52.8809 32.3242L45.2637 39.4043L27.2949 57.4219C26.6113 58.1055 26.123 59.082 26.123 60.0586C26.123 62.2559 27.5391 63.6719 29.6875 63.6719C30.8594 63.6719 31.7871 63.2324 32.4707 62.5488L50.4395 44.5801L57.4707 37.0605L56.7383 44.6777L56.7383 53.125C56.7383 55.4199 58.1543 56.9336 60.3516 56.9336Z" />
 </g>
</svg>
