<svg xmlns="http://www.w3.org/2000/svg" xmlns:xlink="http://www.w3.org/1999/xlink" version="1.0" id="katman_1" x="0px" y="0px" style="enable-background:new 0 0 600 450;" xml:space="preserve" viewBox="52.75 165.55 493.9 119.6">
<style type="text/css">
	.st0{fill-rule:evenodd;clip-rule:evenodd;fill:#010202;stroke:#222225;stroke-width:1.4965;}
	.st1{fill-rule:evenodd;clip-rule:evenodd;fill:#55B25B;}
	.st2{fill-rule:evenodd;clip-rule:evenodd;fill:#FFFFFF;}
</style>
<g id="spotify-podcast-badge-blk-grn-330x80">
	<g id="Group-2">
		<path id="Path" class="st0" d="M518.1,166.3H75.3c-2,0-3.9,0.2-5.9,0.5c-1.9,0.3-3.8,0.9-5.5,1.8c-1.7,0.9-3.3,2.1-4.7,3.4    c-1.4,1.4-2.5,2.9-3.4,4.7c-0.9,1.7-1.5,3.6-1.8,5.5c-0.3,1.9-0.5,3.9-0.5,5.9c0,0.4,0,0.8,0,1.4v0.5c0,0.4,0,0.6,0,0.9V260    c0,0.3,0,0.4,0,0.9v0.4c0,0.6,0,1,0,1.4c0,2,0.2,3.9,0.5,5.9c0.3,1.9,0.9,3.8,1.8,5.5c0.9,1.7,2,3.3,3.4,4.6    c1.4,1.4,2.9,2.5,4.7,3.4c1.7,0.9,3.6,1.5,5.5,1.8c1.9,0.3,3.9,0.5,5.9,0.5h2.7h443.2h2.8c2,0,3.9-0.2,5.9-0.5    c1.9-0.3,3.8-0.9,5.5-1.8c1.7-0.9,3.3-2,4.7-3.4c1.4-1.4,2.5-2.9,3.4-4.6c0.9-1.7,1.5-3.6,1.8-5.5c0.3-1.9,0.5-3.9,0.6-5.9V260    c0-0.2,0-0.4,0-0.7c0-0.7,0-1.3,0-2.6v-62.6c0-1.6,0-2.3,0-3.3v-2.7c0-2-0.2-3.9-0.6-5.9c-0.3-1.9-0.9-3.8-1.8-5.5    c-1.8-3.5-4.6-6.3-8.1-8.1c-1.7-0.9-3.6-1.5-5.5-1.8c-1.9-0.3-3.9-0.5-5.9-0.5L518.1,166.3L518.1,166.3z"/>
		<path id="Combined-Shape" class="st1" d="M320.2,221.4c1.6,0.8,3.6,0.2,4.4-1.4c0.8-1.5,0.3-3.3-1.1-4.3    c-13-7.7-33.5-8.5-45.9-4.7c-1.7,0.6-2.6,2.5-2,4.2c0.6,1.6,2.2,2.5,3.9,2.1C290.3,214.1,308.9,214.7,320.2,221.4z M319.8,231.4    c0.8-1.3,0.4-3-0.9-3.8c-10.8-6.7-26.6-8.5-39.3-4.7c-1.4,0.5-2.2,2.1-1.6,3.5c0.5,1.3,1.9,2.1,3.2,1.7    c11.1-3.4,25.4-1.7,34.9,4.1C317.3,233.1,319,232.7,319.8,231.4C319.8,231.4,319.8,231.4,319.8,231.4z M315.5,241    c0.6-1,0.3-2.4-0.7-3c-9.2-5.7-20.7-7-34-3.9c-1.2,0.4-1.8,1.6-1.5,2.7c0.3,1.1,1.4,1.7,2.4,1.5c12.2-2.8,22.4-1.7,30.7,3.4    C313.6,242.3,314.9,242,315.5,241C315.5,241,315.5,241,315.5,241z M299.5,190.2c19.4-0.1,35.3,15.6,35.4,35s-15.6,35.3-35,35.4    c-19.4,0.1-35.3-15.6-35.4-35c0-0.1,0-0.1,0-0.2C264.5,206.1,280.1,190.3,299.5,190.2C299.5,190.2,299.5,190.2,299.5,190.2z     M359.7,222.7c7.4,1.8,10.4,4.6,10.4,9.7c0,6-4.5,9.8-11.6,9.8c-4.9,0-9.7-1.8-13.3-5.1c-0.2-0.2-0.2-0.4,0-0.6c0,0,0,0,0,0l3.3-4    c0.1-0.1,0.2-0.1,0.3-0.1c0.1,0,0.2,0,0.3,0.1c2.6,2.5,6,4,9.6,4c3.2,0,5.1-1.4,5.1-3.6s-1-3.1-6.7-4.5    c-6.8-1.7-10.7-3.8-10.7-9.8c0-5.6,4.5-9.6,11.1-9.6c4.2-0.1,8.3,1.4,11.6,4c0.2,0.1,0.2,0.4,0.1,0.5l-3,4.2    c-0.1,0.1-0.2,0.1-0.3,0.2c-0.1,0-0.2,0-0.3,0c-2.3-1.9-5.2-3-8.2-3.1c-2.8,0-4.7,1.3-4.7,3.4S353.6,221.3,359.7,222.7    L359.7,222.7z M391,229.5c0-4.2-2.7-7.2-6.3-7.2c-3.7,0-6.5,3.1-6.5,7.2s2.8,7.2,6.5,7.2S391,233.8,391,229.5z M385.9,216.7    c5.7,0,11.4,4.4,11.4,12.8c0,8.4-5.7,12.8-11.4,12.8c-2.9,0.1-5.7-1.2-7.6-3.5v9.8c0,0.2-0.2,0.4-0.4,0.4h-5.4    c-0.2,0-0.4-0.2-0.4-0.4v-30.9c0-0.2,0.2-0.4,0.4-0.4c0,0,0,0,0,0h5.4c0.2,0,0.4,0.2,0.4,0.4c0,0,0,0,0,0v2.8    C380.1,218,382.9,216.7,385.9,216.7L385.9,216.7z M411.9,236.8c3.7,0,6.8-3,6.8-6.7c0-0.1,0-0.3,0-0.4c0.2-3.8-2.7-7.1-6.5-7.3    c-0.1,0-0.2,0-0.3,0c-3.7,0-6.7,3-6.7,6.7c0,0.2,0,0.3,0,0.5c-0.2,3.8,2.7,7.1,6.5,7.3C411.8,236.8,411.9,236.8,411.9,236.8    L411.9,236.8z M411.9,216.7c7.1,0.1,12.7,5.9,12.6,13s-5.9,12.7-13,12.6c-6.9-0.1-12.5-5.8-12.6-12.7c-0.1-7,5.6-12.8,12.6-12.9    C411.7,216.7,411.8,216.7,411.9,216.7L411.9,216.7z M440.5,217.2c0.2,0,0.4,0.2,0.4,0.4c0,0,0,0,0,0v4.7c0,0.2-0.2,0.4-0.4,0.4    c0,0,0,0,0,0h-6v11.2c0,1.8,0.8,2.6,2.5,2.6c1.1,0,2.2-0.3,3.2-0.8c0.2-0.1,0.4,0,0.5,0.2c0,0.1,0,0.1,0,0.2v4.5    c0,0.1-0.1,0.3-0.2,0.3c-1.5,0.9-3.3,1.3-5.1,1.3c-4.8,0-7.2-2.5-7.2-7.4v-12.1h-2.6c-0.2,0-0.4-0.2-0.4-0.4v-4.7    c0-0.2,0.2-0.4,0.4-0.4h2.7v-6.1c0-0.2,0.2-0.4,0.4-0.4l0,0h5.4c0.2,0,0.4,0.2,0.4,0.4c0,0,0,0,0,0v6.1H440.5z M461.2,217.2h9.2    c0.2,0,0.3,0.1,0.4,0.3l6.3,16.6l5.8-16.6c0.1-0.2,0.2-0.3,0.4-0.3h5.6c0.1,0,0.2,0.1,0.3,0.2c0.1,0.1,0.1,0.2,0,0.4l-9.4,24.4    c-1.9,5-4.1,6.9-8.1,6.9c-2,0-4-0.5-5.8-1.5c-0.2-0.1-0.3-0.3-0.2-0.5l1.8-4.1c0-0.1,0.1-0.2,0.2-0.2c0.1,0,0.2,0,0.3,0    c0.9,0.5,1.9,0.8,3,0.9c1.2,0,2.1-0.4,2.9-2.3l-7.7-18.6h-5v18.7c0,0.2-0.2,0.4-0.4,0.4h-5.4c-0.2,0-0.4-0.2-0.4-0.4v-18.6h-2.6    c-0.2,0-0.4-0.2-0.4-0.4v-4.7c0-0.2,0.2-0.4,0.4-0.4h2.6V216c0-5.3,2.6-8.2,7.6-8.2c1.5,0,3,0.2,4.5,0.6c0.2,0.1,0.3,0.2,0.3,0.4    v4.5c0,0.1-0.1,0.2-0.2,0.3c-0.1,0.1-0.2,0.1-0.4,0c-1-0.4-2-0.6-3-0.6c-1.9,0-2.7,1-2.7,3.2L461.2,217.2z M449.2,217.2    c0.2,0,0.4,0.2,0.4,0.4c0,0,0,0,0,0v23.7c0,0.2-0.2,0.4-0.4,0.4h-5.4c-0.2,0-0.4-0.2-0.4-0.4v-23.7c0-0.2,0.2-0.4,0.4-0.4    c0,0,0,0,0,0H449.2z M446.5,206.4c2.2,0,3.9,1.7,3.9,3.9c0,2.2-1.7,3.9-3.9,3.9c-2.2,0-3.9-1.7-3.9-3.9c0,0,0,0,0,0    C442.6,208.2,444.4,206.4,446.5,206.4C446.5,206.4,446.5,206.4,446.5,206.4z M494.1,219.6h-1v1.3h1c0.5,0,0.8-0.2,0.8-0.6    S494.6,219.6,494.1,219.6z M494.8,221.4l1.1,1.5h-0.9l-1-1.4h-0.8v1.4h-0.8v-4h1.9c0.9,0,1.5,0.5,1.5,1.3    C495.7,220.8,495.3,221.3,494.8,221.4z M493.9,217.6c-1.9,0-3.5,1.5-3.5,3.4c0,1.9,1.5,3.5,3.4,3.5c1.9,0,3.5-1.5,3.5-3.4    c0,0,0,0,0-0.1C497.4,219.1,495.9,217.6,493.9,217.6C494,217.6,494,217.6,493.9,217.6z M493.9,224.8c-2.1,0-3.9-1.7-3.9-3.8    c0-2.1,1.7-3.9,3.8-3.9c2.1,0,3.9,1.7,3.9,3.8c0,0,0,0,0,0C497.8,223.1,496.1,224.8,493.9,224.8    C494,224.8,493.9,224.8,493.9,224.8L493.9,224.8z"/>
		<path id="LISTEN-ON" class="st2" d="M111.5,234.1H99.9v-18h3.5v14.7h8L111.5,234.1z M119.8,234.1h-3.6v-18h3.6V234.1z     M138.5,220.4l-3.2,1c-0.3-1.6-1.7-2.7-3.3-2.5c-1.4-0.1-2.7,0.9-2.8,2.3c0,0,0,0,0,0c0,1,0.6,1.8,2,2l2.5,0.5    c3.3,0.6,5,2.8,5,5.3s-2.3,5.6-6.5,5.6c-4.8,0-6.9-3.1-7.2-5.6l3.3-0.9c0.1,2,1.8,3.5,3.8,3.4c0.1,0,0.1,0,0.2,0    c1.9,0,3-0.9,3-2.2c0-1-0.8-1.9-2.2-2.1l-2.5-0.5c-2.7-0.3-4.7-2.5-4.7-5.2c0.2-3.3,3-5.8,6.3-5.7c0,0,0,0,0,0    C136.4,215.7,138.1,218.3,138.5,220.4z M157.5,219.4h-5.7v14.7h-3.5v-14.7h-5.7v-3.4h15V219.4z M173.6,234.1h-11.3v-18.1h11.3v3.4    h-7.8v4.1h7v3.1h-7v4.1h7.8L173.6,234.1z M194.7,234.1H191l-8.2-12.8v12.8h-3.5v-18h4.4l7.5,12v-12h3.5L194.7,234.1z M211.7,225.2    c-0.2,3.1,2.2,5.8,5.3,5.9c3.1,0.2,5.8-2.2,5.9-5.3c0-0.2,0-0.4,0-0.6c0.2-3.1-2.2-5.8-5.3-5.9c-3.1-0.2-5.8,2.2-5.9,5.3    C211.7,224.8,211.7,225,211.7,225.2z M208.1,225.2c-0.2-5.1,3.8-9.4,8.9-9.6s9.4,3.8,9.6,8.9c0,0.2,0,0.5,0,0.7    c0.2,5.1-3.8,9.4-8.9,9.6c-5.1,0.2-9.4-3.8-9.6-8.9C208.1,225.7,208.1,225.4,208.1,225.2z M247.5,234.1h-3.7l-8.2-12.8v12.8h-3.5    v-18.1h4.4l7.5,12v-12h3.5L247.5,234.1z"/>
	</g>
</g>
</svg>