<?xml version="1.0" encoding="utf-8"?>
<!DOCTYPE svg PUBLIC "-//W3C//DTD SVG 1.1//EN" "http://www.w3.org/Graphics/SVG/1.1/DTD/svg11.dtd">
<svg version="1.1" xmlns="http://www.w3.org/2000/svg" xmlns:xlink="http://www.w3.org/1999/xlink" fill="currentColor" width="16" height="16" x="0px" y="0px" viewBox="0 0 1000 1000" enable-background="new 0 0 1000 1000" xml:space="preserve">
<g><g><g><path d="M866.7,467c-13.3,0-25.9,2.7-37.9,6.6c-13.5-105.5-106-187.1-218.4-187.1c-27.5,0-53.7,5.1-78,14v413h334.3c68.1,0,123.3-55.1,123.3-123.2C990,522.2,934.8,467,866.7,467z"/><path d="M487.3,306.1c-16,0-29,13-29,29v347.4c0,16,12.9,29,29,29c16,0,29-13,29-29V335.1C516.2,319.1,503.3,306.1,487.3,306.1z"/><path d="M412.6,352.7c-16,0-29,13-29,29v300.8c0,16,13,29,29,29c16,0,28.9-13,28.9-29V381.7C441.5,365.7,428.5,352.7,412.6,352.7z"/><path d="M337.8,333.3c-16,0-29,13-29,29v320.2c0,16,12.9,28.9,29,28.9c16,0,29-13,29-28.9V362.3C366.8,346.3,353.9,333.3,337.8,333.3z"/><path d="M263.1,376c-16,0-29,13-29,29v277.6c0,16,12.9,28.9,29,28.9c16,0,28.9-13,28.9-28.9V405C292,389,279.1,376,263.1,376z"/><path d="M188.4,479.9c-16,0-28.9,12.9-28.9,29v173.7c0,16,13,28.9,28.9,28.9c16,0,29-13,29-28.9V508.8C217.3,492.8,204.4,479.9,188.4,479.9z"/><path d="M113.7,479.9c-16,0-29,12.9-29,29v173.7c0,16,12.9,28.9,29,28.9c16,0,29-13,29-28.9V508.8C142.6,492.8,129.7,479.9,113.7,479.9z"/><path d="M39,521.6c-16,0-29,12.9-29,28.9v132c0,16,12.9,28.9,29,28.9c16,0,28.9-13,28.9-28.9v-132C67.9,534.5,54.9,521.6,39,521.6z"/></g></g><g></g><g></g><g></g><g></g><g></g><g></g><g></g><g></g><g></g><g></g><g></g><g></g><g></g><g></g><g></g></g>
</svg>
