<svg version="1.1" xmlns="http://www.w3.org/2000/svg" xmlns:xlink="http://www.w3.org/1999/xlink" width="99.6094" height="99.6582" viewBox="0 0 99 99" fill="currentColor">
 <g>
  <rect height="99.6582" opacity="0" width="99.6094" x="0" y="0"/>
  <path d="M49.8047 99.6582C77.0508 99.6582 99.6094 77.0996 99.6094 49.8535C99.6094 22.6562 77.002 0.0488281 49.7559 0.0488281C22.5586 0.0488281 0 22.6562 0 49.8535C0 77.0996 22.6074 99.6582 49.8047 99.6582ZM48.1934 72.5586C46.9727 72.5586 45.9473 72.0703 44.7754 70.9473L33.8379 60.498C33.6914 60.3516 33.3984 60.3027 33.1543 60.3027L25.7812 60.3027C22.3633 60.3027 20.4102 58.3496 20.4102 54.6875L20.4102 45.0684C20.4102 41.4062 22.3633 39.4531 25.7812 39.4531L33.1543 39.4531C33.3984 39.4531 33.6914 39.4043 33.8379 39.2578L44.7754 28.9062C46.0938 27.6855 46.9238 27.1484 48.0957 27.1484C49.8535 27.1484 51.0742 28.5156 51.0742 30.1758L51.0742 69.6777C51.0742 71.2891 49.8535 72.5586 48.1934 72.5586ZM59.6191 61.1816C58.3008 60.2051 58.0566 58.6914 58.9844 57.3242C60.3516 55.4199 61.1816 52.6367 61.1816 49.8535C61.1816 46.875 60.3516 44.0918 59.0332 42.3828C58.0566 41.0156 58.3496 39.4531 59.6191 38.4766C60.6934 37.5977 62.3535 37.9883 63.2324 39.1113C65.2344 41.8945 66.4551 45.8496 66.4551 49.8535C66.4551 53.9551 65.2832 57.8613 63.2324 60.5469C62.3047 61.7188 60.6934 62.0605 59.6191 61.1816ZM68.5059 67.8223C67.1875 67.041 67.041 65.3809 67.9688 64.0625C70.7031 60.4004 72.2168 55.127 72.2168 49.8535C72.2168 44.4336 70.7031 39.3555 67.9688 35.498C67.0898 34.2285 67.2852 32.666 68.5059 31.7871C69.7266 30.9082 71.2402 31.2012 72.1191 32.4707C75.6348 37.3535 77.4414 43.5059 77.4414 49.8535C77.4414 56.25 75.4883 62.4023 72.1191 67.1875C71.2891 68.3594 69.8242 68.6523 68.5059 67.8223Z" fill-opacity="0.85"/>
 </g>
</svg>
