<svg version="1.1" xmlns="http://www.w3.org/2000/svg" xmlns:xlink="http://www.w3.org/1999/xlink" width="99.6094" height="99.6582" viewBox="0 0 99 99" fill="currentColor">
 <g>
  <rect height="99.6582" opacity="0" width="99.6094" x="0" y="0"/>
  <path d="M49.8047 99.6582C77.0508 99.6582 99.6094 77.0996 99.6094 49.8535C99.6094 22.6562 77.002 0.0488281 49.7559 0.0488281C22.5586 0.0488281 0 22.6562 0 49.8535C0 77.0996 22.6074 99.6582 49.8047 99.6582ZM36.4258 60.3027C33.0078 60.3027 31.0547 58.3496 31.0547 54.6875L31.0547 45.0684C31.0547 43.5059 31.6895 42.2363 32.4707 41.5039L32.8613 41.5039L61.2793 69.873L60.7422 71.6309C60.3027 72.1191 59.668 72.5586 58.8379 72.5586C57.6172 72.5586 56.5918 72.0703 55.4199 70.9473L44.4824 60.498C44.2871 60.3516 44.0918 60.3027 43.7988 60.3027ZM46.2891 37.5488L55.4199 28.9062C56.7383 27.6855 57.5684 27.1484 58.7891 27.1484C60.498 27.1484 61.7188 28.5156 61.7188 30.1758L61.7188 52.9785ZM73.5352 76.8066L22.8027 26.123C21.9727 25.1953 21.9238 23.7305 22.8027 22.8516C23.7305 21.9238 25.1953 21.9238 26.123 22.8516L76.8066 73.5352C77.6855 74.4629 77.6855 75.8789 76.8066 76.8066C75.9277 77.6855 74.4141 77.6367 73.5352 76.8066Z" fill-opacity="0.85"/>
 </g>
</svg>
