<svg xmlns="http://www.w3.org/2000/svg" role="img" viewBox="-7.76 -8.50 403.26 161.76"><style>svg {zoom:1}</style><g id="layer1" transform="translate(-449 671.24)" visibility="visible"><path id="Path-Copy-5-5" fill="#000" fill-opacity="1" fill-rule="evenodd" stroke="none" stroke-width="3.658" d="M478.22632-525.52075c-1.16843 0-2.30844-.0138-3.46763-.0414-2.14394-.0553-4.68664-.17972-7.16724-.6235-2.34066-.42163-4.42052-1.1087-6.35276-2.09506-1.99977-1.01193-3.79703-2.3193-5.357-3.88836-1.58788-1.55356-2.8928-3.33896-3.91315-5.34128-.99426-1.9307-1.6738-4.0038-2.08218-6.33844-.46823-2.5734-.58783-5.18452-.63842-7.17163-.0235-.80734-.0567-3.49243-.0567-3.49243v-88.3556s.0332-2.64446.0553-3.42138c.0511-2.00368.17003-4.61262.63454-7.16042.4103-2.34723 1.08977-4.4184 2.08412-6.35725 1.01844-2.00575 2.32528-3.8003 3.89247-5.34667 1.58599-1.58386 3.39094-2.89468 5.37727-3.9109 1.9698-.99672 4.04627-1.6791 6.33973-2.08028 2.5818-.46172 5.19969-.57785 7.19176-.62762l3.46039-.0414h329.62184l3.5014.0553c1.966.0553 4.58349.16452 7.1262.6221 2.3104.40367 4.4002 1.08936 6.4072 2.09563 1.966 1.00503 3.7671 2.31584 5.3362 3.88448 1.5692 1.55357 2.88329 3.35778 3.9243 5.37115.9886 1.9553 1.66279 4.02645 2.0524 6.30678.4455 2.41303.584 4.89117.6664 7.2182.011 1.08383.011 2.2466.011 3.40438.03 1.4344.03 2.79942.03 4.17605v80.04843c0 1.3896 0 2.7455-.03 4.11245 0 1.24418 0 2.3833-.015 3.55602-.079 2.25239-.2169 4.729-.6554 7.08923-.3969 2.34584-1.07091 4.41879-2.0707 6.3875-1.03331 1.98698-2.3479 3.78344-3.8945 5.3001-1.584 1.59879-3.38161 2.90228-5.3661 3.91076-1.9886 1.00779-4.0182 1.67689-6.3961 2.10295-2.4564.44514-4.9991.56403-7.1675.62349-1.1233.0277-2.2993.0414-3.4413.0414l-4.1568.007"/><path id="Listenon-4-3" fill="#fff" fill-rule="nonzero" stroke="none" stroke-width="3.658" d="M599.7313-622.04315v-21.18378h3.3292v18.38893h10.0874v2.79485zm18.3203-17.91255c-1.032 0-1.9309-.79351-1.9309-1.81028 0-1.01608.8988-1.84208 1.9309-1.84208 1.0652 0 1.9309.8253 1.9309 1.84208 0 1.0161-.8655 1.81028-1.9309 1.81028zm-1.4649 17.91255v-15.33997h2.9963v15.33997zm6.2021-2.00078l1.4316-2.09618c1.0986 1.14327 3.2292 2.19143 5.3932 2.19143 2.2638 0 3.4624-.8889 3.4624-2.19143 0-1.52454-1.8311-2.03272-3.8952-2.47732-2.7299-.60412-5.9259-1.30224-5.9259-4.60513 0-2.44552 2.1972-4.5417 6.1256-4.5417 2.7633 0 4.7608.95249 6.1257 2.19143l-1.3316 2.00093c-.9322-1.07968-2.7299-1.87389-4.7608-1.87389-2.0307 0-3.2959.76172-3.2959 2.00093 0 1.33405 1.7312 1.7785 3.7288 2.22322 2.7964.60274 6.1257 1.33405 6.1257 4.85924 0 2.63601-2.2639 4.7004-6.4919 4.7004-2.6967 0-5.0605-.79352-6.6917-2.38193zm21.2499 2.38193c-2.5301 0-3.8285-1.36585-3.8285-3.77943v-9.43272h-2.6634v-2.50897h2.6634v-4.19223h2.9962v4.19223h3.2627v2.50897h-3.2627v8.79749c0 1.07968.5327 1.87389 1.5648 1.87389.699 0 1.3317-.28616 1.6313-.60274l.7657 2.15963c-.6326.57095-1.5647.98429-3.1294.98429zm4.6041-8.06703c0-4.44631 3.3625-8.03523 8.0566-8.03523 4.8273 0 7.8235 3.58892 7.8235 8.28932v.69813h-12.7174c.2329 2.60435 2.2306 4.76398 5.4599 4.76398 1.6979 0 3.56221-.63592 4.7607-1.81028l1.3982 1.87387c-1.598 1.49276-3.8618 2.28668-6.4586 2.28668-4.794 0-8.3229-3.23944-8.3229-8.06703zm8.0566-5.68497c-3.2293 0-4.7607 2.47731-4.9272 4.57335h9.8211c-.066-2.03257-1.4981-4.57335-4.8939-4.57335zm22.282 13.37085v-9.81371c0-2.54077-1.3649-3.36663-3.4291-3.36663-1.86419 0-3.56209 1.07967-4.42769 2.22322v10.95712h-2.9963v-15.33997h2.9963v2.15963c1.0653-1.23866 3.196-2.54077 5.6928-2.54077 3.3958 0 5.1603 1.71504 5.1603 4.95449v10.76662zm23.1574.38156c-4.99379 0-8.1232-3.62058-8.1232-8.06703 0-4.41465 3.12941-8.03523 8.1232-8.03523 5.02711 0 8.1232 3.62058 8.1232 8.03523 0 4.44645-3.09609 8.06703-8.1232 8.06703zm0-2.54077c3.2293 0 4.9938-2.60435 4.9938-5.52626 0-2.8901-1.7645-5.49446-4.9938-5.49446-3.196 0-4.99379 2.60436-4.99379 5.49446 0 2.92191 1.7978 5.52626 4.99379 5.52626zm22.61491 2.15964v-9.81372c0-2.54078-1.365-3.36664-3.4291-3.36664-1.8642 0-3.5622 1.07968-4.4278 2.22322v10.95714h-2.99621v-15.33998h2.99621v2.15962c1.0653-1.23865 3.196-2.54077 5.6929-2.54077 3.3958 0 5.1603 1.71505 5.1603 4.95449v10.76664z"/><path id="Spotify_Icon_RGB_Green-4-6" fill="#1ed760" fill-opacity="1" fill-rule="evenodd" stroke="none" stroke-width="3.658" d="M565.44711-604.69671c-14.1483-8.40239-37.48568-9.1749-50.99194-5.07571-2.16938.65803-4.46296-.56542-5.1202-2.73487-.65736-2.17041.5661-4.46247 2.73644-5.12176 15.50429-4.70619 41.27834-3.7974 57.5661 5.87132 1.9508 1.15848 2.5908 3.67782 1.4346 5.62537-1.1573 1.95089-3.6789 2.594-5.625 1.43565zm-.46323 12.44491c-.99271 1.61067-3.09869 2.11594-4.70723 1.12669-11.7955-7.25029-29.78204-9.3509-43.73694-5.11499-1.80982.54605-3.72081-.4728-4.27063-2.27991-.5451-1.80933.47541-3.71708 2.28205-4.26742 15.9414-4.83781 35.75926-2.49487 49.3069 5.83095 1.60854.9912 2.1149 3.0976 1.12585 4.70454zm-5.37075 11.95166c-.78885 1.29394-2.47288 1.69872-3.76164.911-10.30703-6.29943-23.28028-7.72196-38.55864-4.23229-1.47224.33731-2.93982-.58477-3.27581-2.05719-.3369-1.47188.58227-2.93933 2.05773-3.2754 16.71967-3.82185 31.06144-2.17718 42.63054 4.89228 1.28995.78799 1.69611 2.47276.90781 3.76214zm-20.12968-63.30792c-24.24046 0-43.89214 19.65122-43.89214 43.89157 0 24.24309 19.65168 43.89266 43.89214 43.89266 24.24144 0 43.89206-19.64957 43.89206-43.89266 0-24.24035-19.65062-43.89157-43.89206-43.89157z"/><path id="path4-2" fill="#1dd15d" fill-opacity="1" stroke-width="1.168" d="M783.4814-566.07266c-2.6859 0-4.7879-2.21878-4.7879-4.78791 0-2.6859 2.102-4.90468 4.9047-4.90468 2.6859 0 4.7879 2.21878 4.7879 4.78791 0 2.6859-2.10199 4.90468-4.9047 4.90468m.1168-9.22547c-2.4523 0-4.3208 1.98523-4.3208 4.43756 0 2.45235 1.86851 4.3208 4.3208 4.3208 2.4524 0 4.3208-1.98523 4.3208-4.43757 0-2.33556-1.8684-4.32079-4.3208-4.32079m1.051 4.90469l1.4014 1.86844h-1.1678l-1.2846-1.75167h-1.051v1.75167h-.9342v-5.13825h2.2188c1.1677 0 1.9852.5839 1.9852 1.6349 0 .81745-.4671 1.40134-1.1678 1.63491m-.8174-2.33558h-1.2846v1.6349h1.2846c.5838 0 1.051-.35034 1.051-.81745-.1168-.58389-.4672-.81745-1.051-.81745" class="st0"/><path id="path8-8" fill="#1dd15d" fill-opacity="1" stroke-width="1.168" d="M618.2403-590.12897c-7.7074-1.86844-9.1087-3.153-9.1087-5.8389 0-2.56912 2.4523-4.3208 5.9557-4.3208s6.8899 1.28457 10.51 3.97047c.1169.11677.2336.11677.3504.11677.1168 0 .2335-.11677.3503-.23356l3.7369-5.25501c.1168-.23356.1168-.46712-.1168-.70068-4.3208-3.38656-9.1087-5.13824-14.714-5.13824-8.2913 0-14.1302 5.02147-14.1302 12.14494 0 7.59057 5.0215 10.39326 13.6631 12.49526 7.357 1.75168 8.6415 3.153 8.6415 5.60535 0 2.80268-2.5691 4.55435-6.5395 4.55435-4.4376 0-8.1746-1.51812-12.2617-5.02146-.1169-.11678-.2336-.11678-.3504-.11678-.1168 0-.2335.11678-.3503.23356l-4.204 5.02146c-.2336.23355-.1169.4671 0 .70066 4.7878 4.20402 10.6268 6.53958 16.9328 6.53958 8.9919 0 14.7141-4.90468 14.7141-12.49526.1167-6.53957-3.737-10.04292-13.0792-12.26171" class="st0"/><path id="path10-4" fill="#1dd15d" fill-opacity="1" stroke-width="1.168" d="M651.6389-597.71954c-3.8537 0-7.0067 1.51811-9.6926 4.67112v-3.50334c0-.23355-.2336-.46711-.4671-.46711h-6.8899c-.2336 0-.4671.23356-.4671.46711v39.12067c0 .23357.2335.46712.4671.46712h6.8899c.2335 0 .4671-.23355.4671-.46712v-12.37847c2.5691 2.91946 5.8389 4.43757 9.6926 4.43757 7.2402 0 14.4804-5.48858 14.4804-16.11538 0-10.7436-7.2402-16.23217-14.4804-16.23217m6.5396 16.11538c0 5.3718-3.2699 9.1087-8.0577 9.1087-4.6711 0-8.2913-3.97045-8.2913-9.1087 0-5.25501 3.5034-9.10868 8.2913-9.10868 4.6711 0 8.0577 3.85367 8.0577 9.10868" class="st0"/><path id="path12-2" fill="#1dd15d" fill-opacity="1" stroke-width="1.168" d="M684.8039-597.71954c-9.2255 0-16.5825 7.12347-16.5825 16.23217 0 8.99191 7.2402 16.11538 16.4657 16.11538 9.3422 0 16.5825-7.12347 16.5825-16.23217.1168-8.99191-7.1235-16.11538-16.4657-16.11538m0 25.34086c-4.9047 0-8.6416-3.97047-8.6416-9.22548 0-5.25501 3.6201-9.10868 8.5248-9.10868 5.0215 0 8.7583 3.97044 8.7583 9.22547 0 5.25501-3.62 9.10869-8.6415 9.10869" class="st0"/><path id="path14-6" fill="#1dd15d" fill-opacity="1" stroke-width="1.168" d="M721.12191-597.13566h-7.5906v-7.70736c0-.23355-.2336-.46711-.4671-.46711h-6.8899c-.2336 0-.4671.23356-.4671.46711v7.70736h-3.2698c-.2336 0-.4671.23357-.4671.46712v5.9557c0 .23354.2335.4671.4671.4671h3.2698v15.29794c0 6.18924 3.0362 9.34226 9.1086 9.34226 2.4524 0 4.5544-.46712 6.4228-1.63489.1169-.11679.2337-.23357.2337-.46713v-5.60534c0-.11679-.1169-.35035-.2337-.46712-.1167-.11678-.3503-.11678-.4671 0-1.2845.70067-2.5691.93423-4.0872.93423-2.2188 0-3.153-1.05101-3.153-3.26979v-14.13016h7.5906c.2335 0 .4671-.23356.4671-.4671v-5.9557c.1168-.23355-.1168-.46712-.4671-.46712" class="st0"/><path id="path16-9" fill="#1dd15d" fill-opacity="1" stroke-width="1.168" d="M747.51371-597.13566v-.93422c0-2.80267 1.051-4.08723 3.5034-4.08723 1.4013 0 2.5691.23355 3.8537.70067.1168 0 .3503 0 .4671-.11679.1168-.11677.2336-.23356.2336-.46711v-5.83891c0-.23356-.1169-.46711-.3504-.46711-1.4014-.35033-3.153-.81745-5.7221-.81745-6.3061 0-9.6926 3.62013-9.6926 10.39326v1.40134h-3.2698c-.2336 0-.4671.23355-.4671.46712v5.95569c0 .23355.2335.4671.4671.4671h3.2698v23.58919c0 .23355.2336.46711.4671.46711h6.8899c.2336 0 .4671-.23356.4671-.46711v-23.35563h6.4228l9.8094 23.58918c-1.1678 2.45235-2.2188 2.91946-3.7369 2.91946-1.1678 0-2.4524-.35033-3.7369-1.051-.1168-.11678-.2336-.11678-.3503 0-.1169 0-.2336.11677-.3504.23355l-2.3356 5.13825c-.1167.23355 0 .4671.2336.70066 2.4524 1.28455 4.6711 1.86846 7.3571 1.86846 5.1382 0 7.9408-2.33557 10.3932-8.75836l11.9114-30.82944c.1168-.11677 0-.35033 0-.46711-.1169-.11678-.23361-.23357-.4671-.23357h-7.1235c-.23361 0-.35041.11679-.4671.35035l-7.357 21.02006-8.0578-21.02006c-.1168-.23356-.23351-.35035-.4671-.35035z" class="st0"/><path id="path18-8" fill="#1dd15d" fill-opacity="1" stroke-width="1.168" d="M732.2158-597.13566h-6.8899c-.2336 0-.46709.23357-.46709.46712v30.01198c0 .23356.2335.46712.46709.46712h6.8899c.23351 0 .46721-.23356.46721-.46712v-30.01198c.1167-.23355-.1169-.46712-.46721-.46712" class="st0"/><path id="path20-4" fill="#1dd15d" fill-opacity="1" stroke-width="1.168" d="M728.8293-610.7987c-2.686 0-4.9047 2.21879-4.9047 4.90469 0 2.68589 2.2187 4.90468 4.9047 4.90468 2.6858 0 4.9046-2.21879 4.9046-4.90468 0-2.6859-2.2188-4.90469-4.9046-4.90469" class="st0"/></g></svg>